<?xml version="1.0" encoding="UTF-8" standalone="no"?>
<!-- Created with Inkscape (http://www.inkscape.org/) -->

<svg
   width="210mm"
   height="297mm"
   viewBox="0 0 210 297"
   version="1.1"
   id="svg1"
   inkscape:version="1.3 (0e150ed6c4, 2023-07-21)"
   sodipodi:docname="Drawing Star Flower 11DTE.svg"
   xmlns:inkscape="http://www.inkscape.org/namespaces/inkscape"
   xmlns:sodipodi="http://sodipodi.sourceforge.net/DTD/sodipodi-0.dtd"
   xmlns="http://www.w3.org/2000/svg"
   xmlns:svg="http://www.w3.org/2000/svg">
  <sodipodi:namedview
     id="namedview1"
     pagecolor="#ffffff"
     bordercolor="#000000"
     borderopacity="0.25"
     inkscape:showpageshadow="2"
     inkscape:pageopacity="0.0"
     inkscape:pagecheckerboard="0"
     inkscape:deskcolor="#d1d1d1"
     inkscape:document-units="mm"
     inkscape:zoom="0.73139029"
     inkscape:cx="396.50513"
     inkscape:cy="561.25984"
     inkscape:window-width="1920"
     inkscape:window-height="1017"
     inkscape:window-x="-8"
     inkscape:window-y="-8"
     inkscape:window-maximized="1"
     inkscape:current-layer="layer1" />
  <defs
     id="defs1" />
  <g
     inkscape:label="Layer 1"
     inkscape:groupmode="layer"
     id="layer1">
    <path
       sodipodi:type="star"
       style="fill:#2200ff;fill-opacity:0.34509799;stroke:#000000;stroke-width:1.465"
       id="path3"
       inkscape:flatsided="false"
       sodipodi:sides="5"
       sodipodi:cx="82.118149"
       sodipodi:cy="56.071861"
       sodipodi:r1="69.945862"
       sodipodi:r2="0.6994586"
       sodipodi:arg1="1.0028771"
       sodipodi:arg2="1.6311956"
       inkscape:rounded="-1.59"
       inkscape:randomized="0.088"
       d="M 120.97084,109.94518 C 203.61209,43.653611 -19.775457,33.15399 86.091506,53.788268 191.95847,74.422546 -47.411359,41.050083 39.956488,110.43653 127.32434,179.82298 48.087478,-39.998869 76.89655,61.845072 105.70562,163.68901 74.546987,-66.809441 19.554053,31.208631 -35.43888,129.2267 184.87638,7.6470543 87.372176,55.833929 -10.132025,104.0208 195.56286,-7.1890711 84.217876,-11.717804 -27.12711,-16.246537 172.93014,132.56256 86.86386,56.872715 0.79758303,-18.817133 182.82162,137.46687 151.72162,34.436394 120.62163,-68.594087 41.680023,147.53358 83.692641,50.577056 125.70526,-46.379472 38.329593,176.23675 120.97084,109.94518 Z"
       inkscape:transform-center-x="1.2265223"
       inkscape:transform-center-y="-4.4511418"
       transform="translate(20.619976,43.410475)" />
    <ellipse
       style="fill:#ffff00;fill-opacity:1;stroke:#000000;stroke-width:1.465"
       id="path4"
       cx="104.72777"
       cy="98.758827"
       rx="25.141901"
       ry="23.514008" />
  </g>
</svg>
